<svg id="Layer_1" data-name="Layer 1" xmlns="http://www.w3.org/2000/svg" width="464.57" height="121.2" viewBox="0 0 464.57 121.2"><defs><style>.cls-1{fill:#475ba6;}.cls-2{fill:#7485c2;}.cls-3{fill:#e83d31;}.cls-4{fill:#fff;}</style></defs><path class="cls-1" d="M143.43,271.77l-12.57-9.61a47.74,47.74,0,0,0,0-12.56L143.45,240a3.07,3.07,0,0,0,.77-3.87l-12.51-21a3.22,3.22,0,0,0-3.83-1.35l-14.07,5.54a47.08,47.08,0,0,0-12.21-7.19L99.5,198a3.09,3.09,0,0,0-3.12-2.56l-24.94,0a3,3,0,0,0-3,2.58l-2,14.19a46.78,46.78,0,0,0-12.23,7.25L40.08,214a3.11,3.11,0,0,0-3.81,1.37l-12.41,21a2.88,2.88,0,0,0,.78,3.86l12.59,9.53a47.66,47.66,0,0,0-.41,6.25,48.33,48.33,0,0,0,.43,6.4L24.63,272a3.07,3.07,0,0,0-.77,3.87l12.5,20.95a3.23,3.23,0,0,0,3.84,1.35l14.07-5.54a46.91,46.91,0,0,0,12.21,7.19L68.57,314a3.17,3.17,0,0,0,3.13,2.56l24.93-.05a2.94,2.94,0,0,0,3-2.58l2-14.17a46.87,46.87,0,0,0,12.24-7.26L128,298a3.1,3.1,0,0,0,3.82-1.37l12.41-21A2.87,2.87,0,0,0,143.43,271.77Z" transform="translate(-23.44 -195.4)"/><ellipse id="ellipse862" class="cls-2" cx="84.04" cy="256" rx="25.31" ry="25.32" transform="translate(-179.84 -60.99) rotate(-45)"/><path class="cls-3" d="M46.8,256h.05a1.28,1.28,0,0,0,1.28-1.24,35.93,35.93,0,0,1,58.14-27H99.44a1.29,1.29,0,1,0,0,2.57h10.28a1.59,1.59,0,0,0,.3-.06l.19,0,.1-.07a1.34,1.34,0,0,0,.31-.22h0a.42.42,0,0,0,.09-.14,1,1,0,0,0,.17-.27.85.85,0,0,0,.06-.31,1,1,0,0,0,0-.17V218.79a1.29,1.29,0,1,0-2.57,0v7.43a38.48,38.48,0,0,0-62.85,28.44A1.27,1.27,0,0,0,46.8,256Z" transform="translate(-23.44 -195.4)"/><path class="cls-3" d="M57.19,279.88a1.29,1.29,0,1,0-1.92,1.71h0a39.2,39.2,0,0,0,2.79,2.83,1.29,1.29,0,0,0,1.74-1.9,32.51,32.51,0,0,1-2.61-2.64Z" transform="translate(-23.44 -195.4)"/><path class="cls-3" d="M72.51,290a34.39,34.39,0,0,1-3.45-1.37,1.28,1.28,0,0,0-1.14,2.3l.06,0a39,39,0,0,0,3.7,1.47,1.28,1.28,0,0,0,.83-2.43Z" transform="translate(-23.44 -195.4)"/><path class="cls-3" d="M65.77,286.94a35.34,35.34,0,0,1-3.1-2.05,1.28,1.28,0,1,0-1.59,2l.06.05a38.15,38.15,0,0,0,3.32,2.2,1.28,1.28,0,1,0,1.31-2.21Z" transform="translate(-23.44 -195.4)"/><path class="cls-3" d="M54.87,277a33.84,33.84,0,0,1-2-3.12,1.29,1.29,0,1,0-2.23,1.29,37.87,37.87,0,0,0,2.16,3.33,1.28,1.28,0,0,0,1.79.26,1.29,1.29,0,0,0,.29-1.76Z" transform="translate(-23.44 -195.4)"/><path class="cls-3" d="M51.18,270.55a36.27,36.27,0,0,1-1.33-3.46,1.28,1.28,0,0,0-2.48.67s0,.08,0,.12c.41,1.26.89,2.5,1.42,3.72a1.3,1.3,0,0,0,1.18.76,1.28,1.28,0,0,0,1.28-1.28,1.31,1.31,0,0,0-.11-.52Z" transform="translate(-23.44 -195.4)"/><path class="cls-3" d="M47.9,265a1.28,1.28,0,0,0,1-1.52c-.25-1.22-.45-2.44-.58-3.67a1.28,1.28,0,1,0-2.55.27c.14,1.32.35,2.63.62,3.93a1.29,1.29,0,0,0,1.52,1Z" transform="translate(-23.44 -195.4)"/><path class="cls-3" d="M120.48,263.71a1.28,1.28,0,0,0-1.55.93,36.51,36.51,0,0,1-1.08,3.56,1.29,1.29,0,0,0,2.42.87,38.84,38.84,0,0,0,1.15-3.81,1.28,1.28,0,0,0-.94-1.55Z" transform="translate(-23.44 -195.4)"/><path class="cls-3" d="M79.74,291.67a35,35,0,0,1-3.66-.62,1.28,1.28,0,1,0-.56,2.5h0a36.88,36.88,0,0,0,3.92.67h.15a1.28,1.28,0,0,0,.15-2.56Z" transform="translate(-23.44 -195.4)"/><path class="cls-3" d="M118.12,271a1.29,1.29,0,0,0-1.72.59,34.32,34.32,0,0,1-1.78,3.26,1.28,1.28,0,0,0,.44,1.76,1.29,1.29,0,0,0,1.74-.41,35.76,35.76,0,0,0,1.91-3.49,1.27,1.27,0,0,0-.59-1.71Z" transform="translate(-23.44 -195.4)"/><path class="cls-3" d="M112.5,277.93a36.13,36.13,0,0,1-2.42,2.83,1.28,1.28,0,1,0,1.86,1.76h0a37.16,37.16,0,0,0,2.59-3,1.28,1.28,0,1,0-2-1.59l0,0Z" transform="translate(-23.44 -195.4)"/><path class="cls-3" d="M121.27,256.06a1.26,1.26,0,0,0-1.32,1.2v0a35.3,35.3,0,0,1-.33,3.7,1.3,1.3,0,0,0,1.1,1.45h.18a1.28,1.28,0,0,0,1.27-1.11c.18-1.31.29-2.64.34-4a1.29,1.29,0,0,0-1.24-1.33Z" transform="translate(-23.44 -195.4)"/><path class="cls-3" d="M107.39,283.31a36.09,36.09,0,0,1-3,2.27,1.29,1.29,0,0,0,1.47,2.12h0c1.09-.76,2.14-1.58,3.15-2.44a1.28,1.28,0,1,0-1.67-1.95Z" transform="translate(-23.44 -195.4)"/><path class="cls-3" d="M94.45,290.4c-1.19.36-2.39.65-3.61.89a1.28,1.28,0,0,0,.24,2.54l.24,0a39,39,0,0,0,3.87-.95,1.28,1.28,0,0,0-.74-2.46Z" transform="translate(-23.44 -195.4)"/><path class="cls-3" d="M87.16,291.8c-1,.09-2.07.13-3.12.13h-.59a1.32,1.32,0,0,0-1.3,1.26,1.28,1.28,0,0,0,1.25,1.31H84c1.12,0,2.24-.05,3.34-.15a1.28,1.28,0,0,0-.15-2.56Z" transform="translate(-23.44 -195.4)"/><path class="cls-3" d="M101.29,287.53c-1.09.59-2.21,1.13-3.35,1.61a1.29,1.29,0,1,0,1,2.38h0a39.49,39.49,0,0,0,3.59-1.73,1.28,1.28,0,1,0-1.24-2.25Z" transform="translate(-23.44 -195.4)"/><path class="cls-4" d="M117,237.44a4.7,4.7,0,0,1-1.44,3.33L84,271.47,77.31,278l-.16.14,0,0-.16.13-.17.14,0,0-.17.12-.19.12,0,0-.18.1-.2.09,0,0-.18.08-.22.08h0l-.19.06-.25.06h0l-.18,0-.29.05-.16,0-.45,0-.45,0-.16,0-.3-.05-.18,0h0l-.25-.07-.19-.06h0l-.22-.08-.19-.09h0l-.21-.1-.18-.11,0,0a.76.76,0,0,1-.19-.12l-.18-.12,0,0-.18-.13-.16-.14,0,0-.16-.15L52.46,259.78a4.74,4.74,0,1,1,6.7-6.71L74.05,268l10-9.72L109,234a4.75,4.75,0,0,1,8.05,3.46Z" transform="translate(-23.44 -195.4)"/><path class="cls-4" d="M193.25,258.47q0,9.16-4.16,14.67a13.33,13.33,0,0,1-11.22,5.51,12.36,12.36,0,0,1-9.71-4.17v18.67H157.58V238.29h9.81l.37,3.89a12.43,12.43,0,0,1,10-4.62A13.42,13.42,0,0,1,189.18,243q4.06,5.42,4.07,14.94Zm-10.58-.77c0-3.68-.66-6.53-2-8.53a6.4,6.4,0,0,0-5.7-3q-5,0-6.85,3.81V266.2c1.3,2.61,3.6,3.92,6.92,3.92Q182.67,270.12,182.67,257.7Z" transform="translate(-23.44 -195.4)"/><path class="cls-4" d="M218,278.65q-8.72,0-14.19-5.35t-5.47-14.24v-1a24,24,0,0,1,2.3-10.67,16.89,16.89,0,0,1,6.54-7.25,18.33,18.33,0,0,1,9.65-2.55q8.13,0,12.8,5.13t4.67,14.54v4.32H209.11a9.8,9.8,0,0,0,3.09,6.22,9.32,9.32,0,0,0,6.54,2.35,11.45,11.45,0,0,0,9.56-4.43l5.2,5.82a15.82,15.82,0,0,1-6.45,5.25A21.1,21.1,0,0,1,218,278.65Zm-1.21-32.56a6.63,6.63,0,0,0-5.11,2.14,11,11,0,0,0-2.5,6.1h14.72v-.84A7.86,7.86,0,0,0,222,248,6.81,6.81,0,0,0,216.83,246.09Z" transform="translate(-23.44 -195.4)"/><path class="cls-4" d="M262.61,248.22a27.93,27.93,0,0,0-3.81-.29c-4,0-6.63,1.35-7.87,4.06v25.93H240.34V238.29h10l.29,4.73q3.19-5.46,8.83-5.46a11.06,11.06,0,0,1,3.3.48Z" transform="translate(-23.44 -195.4)"/><path class="cls-4" d="M265.47,257.81q0-9.12,4.34-14.68a14.06,14.06,0,0,1,11.7-5.57q6.51,0,10.14,4.47l.44-3.74h9.59V276.6a16.85,16.85,0,0,1-2.36,9,15.11,15.11,0,0,1-6.64,5.86,23.31,23.31,0,0,1-10,2,21.68,21.68,0,0,1-8.49-1.74,15.14,15.14,0,0,1-6.27-4.49l4.69-6.44a12.42,12.42,0,0,0,9.6,4.43,9.07,9.07,0,0,0,6.55-2.25,8.47,8.47,0,0,0,2.34-6.39v-2.13a12.23,12.23,0,0,1-9.63,4.14,14,14,0,0,1-11.55-5.58q-4.41-5.6-4.41-14.82Zm10.58.79c0,3.6.72,6.41,2.16,8.45a6.86,6.86,0,0,0,5.93,3.07c3.23,0,5.53-1.21,6.92-3.63V249.8q-2.12-3.63-6.84-3.63a6.92,6.92,0,0,0-6,3.12C276.78,251.36,276.05,254.47,276.05,258.6Z" transform="translate(-23.44 -195.4)"/><path class="cls-4" d="M333.54,273.89q-3.92,4.75-10.83,4.76-6.37,0-9.73-3.66t-3.42-10.73v-26h10.58v25.63q0,6.19,5.64,6.2,5.39,0,7.4-3.74V238.29H343.8v39.63h-10Z" transform="translate(-23.44 -195.4)"/><path class="cls-4" d="M351.71,228a5.22,5.22,0,0,1,1.59-3.92,6.86,6.86,0,0,1,8.66,0,5.6,5.6,0,0,1,0,7.88,6.81,6.81,0,0,1-8.6,0A5.2,5.2,0,0,1,351.71,228ZM363,277.92H352.33V238.29H363Z" transform="translate(-23.44 -195.4)"/><path class="cls-4" d="M370,257.81q0-9.26,4.16-14.76a13.49,13.49,0,0,1,11.37-5.49,12.13,12.13,0,0,1,9.55,4.32V221.67h10.63v56.25h-9.56l-.52-4.21a12.46,12.46,0,0,1-10.18,4.94,13.46,13.46,0,0,1-11.22-5.51Q370,267.62,370,257.81Zm10.58.79q0,5.58,1.94,8.55a6.34,6.34,0,0,0,5.64,3A7.06,7.06,0,0,0,395.1,266V250.31a7,7,0,0,0-6.84-4.14Q380.6,246.17,380.6,258.6Z" transform="translate(-23.44 -195.4)"/><path class="cls-4" d="M432.17,278.65q-8.73,0-14.2-5.35t-5.47-14.24v-1a23.9,23.9,0,0,1,2.31-10.67,16.87,16.87,0,0,1,6.53-7.25,18.33,18.33,0,0,1,9.65-2.55q8.13,0,12.8,5.13t4.67,14.54v4.32H423.23a9.8,9.8,0,0,0,3.09,6.22,9.34,9.34,0,0,0,6.54,2.35,11.44,11.44,0,0,0,9.56-4.43l5.2,5.82a15.82,15.82,0,0,1-6.45,5.25A21.09,21.09,0,0,1,432.17,278.65ZM431,246.09a6.62,6.62,0,0,0-5.11,2.14,11,11,0,0,0-2.51,6.1h14.72v-.84a7.86,7.86,0,0,0-1.9-5.46A6.83,6.83,0,0,0,431,246.09Z" transform="translate(-23.44 -195.4)"/><path class="cls-4" d="M469.55,250.12l6.67-11.83h11.32L476.26,257.7,488,277.92H476.66l-7.07-12.45-7,12.45H451.17l11.76-20.22-11.25-19.41H463Z" transform="translate(-23.44 -195.4)"/></svg>