
<svg id="OBJECTS" xmlns="http://www.w3.org/2000/svg" viewBox="0 0 466.09 385.46"><defs><style>.cls-1{fill:#5f99b2;}.cls-2{fill:#7fbdd3;}.cls-3{fill:#71a8c6;}.cls-4{fill:#fff;}.cls-5{fill:#629db7;}.cls-17,.cls-6{fill:#feffff;}.cls-7{fill:#3a1751;}.cls-8{fill:#62497f;}.cls-9{fill:#6d598e;}.cls-10{fill:#b6b6ef;}.cls-11{fill:#472f59;}.cls-12{fill:#5c4275;}.cls-13{fill:#e29b8d;}.cls-14{fill:#eab2a5;}.cls-15{fill:#bc6262;}.cls-16{fill:#e29f91;}.cls-17{opacity:0.2;}.cls-18{fill:#616dc1;}.cls-19{fill:#415499;}.cls-20{fill:#4f5faf;}.cls-21{fill:#382549;}</style></defs><path class="cls-1" d="M330.83,223.42a13.81,13.81,0,1,0,13.81,13.81A13.81,13.81,0,0,0,330.83,223.42Zm0,22.14a8.33,8.33,0,1,1,8.33-8.33A8.33,8.33,0,0,1,330.83,245.56Z" transform="translate(-16.87 -54.72)"/><rect class="cls-1" x="311.83" y="164.57" width="5.35" height="7.24"/><rect class="cls-1" x="313.66" y="232.95" width="5.35" height="7.24" transform="translate(62.91 498.19) rotate(-90)"/><rect class="cls-1" x="342.41" y="233.61" width="5.35" height="7.24" transform="translate(90.99 527.59) rotate(-90)"/><rect class="cls-1" x="338.17" y="222.91" width="5.35" height="7.24" transform="translate(258.66 -232.2) rotate(47.21)"/><rect class="cls-1" x="318.44" y="222.4" width="5.35" height="7.24" transform="translate(688.26 89.19) rotate(132.79)"/><rect class="cls-1" x="311.67" y="193.51" width="5.35" height="7.24"/><rect class="cls-1" x="338.97" y="243.58" width="5.35" height="7.24" transform="translate(-88.72 275.25) rotate(-47.21)"/><rect class="cls-1" x="317.64" y="244.41" width="5.35" height="7.24" transform="translate(339.04 596.86) rotate(-132.79)"/><path class="cls-1" d="M71.32,312.78a13.81,13.81,0,1,0,13.81,13.81A13.81,13.81,0,0,0,71.32,312.78Zm0,22.14a8.33,8.33,0,1,1,8.33-8.33A8.33,8.33,0,0,1,71.32,334.92Z" transform="translate(-16.87 -54.72)"/><rect class="cls-1" x="52.32" y="253.93" width="5.35" height="7.24"/><rect class="cls-1" x="54.15" y="322.31" width="5.35" height="7.24" transform="translate(-285.96 328.04) rotate(-90)"/><rect class="cls-1" x="82.9" y="322.97" width="5.35" height="7.24" transform="translate(-257.88 357.44) rotate(-90)"/><rect class="cls-1" x="78.66" y="312.27" width="5.35" height="7.24" transform="translate(241.02 -13.11) rotate(47.21)"/><rect class="cls-1" x="58.93" y="311.76" width="5.35" height="7.24" transform="translate(318.03 429.69) rotate(132.79)"/><rect class="cls-1" x="52.16" y="282.86" width="5.35" height="7.24"/><rect class="cls-1" x="79.46" y="332.94" width="5.35" height="7.24" transform="translate(-237.5 113.47) rotate(-47.21)"/><rect class="cls-1" x="58.13" y="333.77" width="5.35" height="7.24" transform="translate(-162.34 556.49) rotate(-132.79)"/><path class="cls-1" d="M438.64,302.89a10.79,10.79,0,1,0,10.79,10.79A10.79,10.79,0,0,0,438.64,302.89Zm0,17.29a6.51,6.51,0,1,1,6.51-6.5A6.51,6.51,0,0,1,438.64,320.18Z" transform="translate(-16.87 -54.72)"/><rect class="cls-1" x="420.11" y="244.94" width="4.18" height="5.65"/><rect class="cls-1" x="425.24" y="310.33" width="4.18" height="5.65" transform="translate(97.3 685.76) rotate(-90)"/><rect class="cls-1" x="447.68" y="310.85" width="4.18" height="5.65" transform="translate(119.23 708.73) rotate(-90)"/><rect class="cls-1" x="444.37" y="302.49" width="4.18" height="5.65" transform="translate(350.35 -284.44) rotate(47.21)"/><rect class="cls-1" x="428.97" y="302.09" width="4.18" height="5.65" transform="translate(930.78 141.02) rotate(132.79)"/><rect class="cls-1" x="419.99" y="267.54" width="4.18" height="5.65"/><rect class="cls-1" x="445" y="318.64" width="4.18" height="5.65" transform="translate(-109.4 376.44) rotate(-47.21)"/><rect class="cls-1" x="428.34" y="319.28" width="4.18" height="5.65" transform="translate(469.6 802.07) rotate(-132.79)"/><path class="cls-1" d="M360.53,77A10.79,10.79,0,1,0,371.32,87.8,10.79,10.79,0,0,0,360.53,77Zm0,17.29A6.51,6.51,0,1,1,367,87.8,6.51,6.51,0,0,1,360.53,94.3Z" transform="translate(-16.87 -54.72)"/><rect class="cls-1" x="341.99" y="19.06" width="4.18" height="5.65"/><rect class="cls-1" x="347.12" y="84.45" width="4.18" height="5.65" transform="translate(245.07 381.77) rotate(-90)"/><rect class="cls-1" x="369.57" y="84.97" width="4.18" height="5.65" transform="translate(267 404.74) rotate(-90)"/><rect class="cls-1" x="366.26" y="76.61" width="4.18" height="5.65" transform="translate(159.55 -299.56) rotate(47.21)"/><rect class="cls-1" x="350.86" y="76.21" width="4.18" height="5.65" transform="translate(633.85 -180.99) rotate(132.79)"/><rect class="cls-1" x="341.88" y="41.66" width="4.18" height="5.65"/><rect class="cls-1" x="366.89" y="92.76" width="4.18" height="5.65" transform="translate(31.31 246.69) rotate(-47.21)"/><rect class="cls-1" x="350.23" y="93.4" width="4.18" height="5.65" transform="translate(504.18 365.42) rotate(-132.79)"/><path class="cls-1" d="M81.14,67.7A10.79,10.79,0,1,0,91.93,78.49,10.79,10.79,0,0,0,81.14,67.7Zm0,17.3a6.51,6.51,0,1,1,6.51-6.51A6.51,6.51,0,0,1,81.14,85Z" transform="translate(-16.87 -54.72)"/><rect class="cls-1" x="62.61" y="9.76" width="4.18" height="5.65"/><rect class="cls-1" x="67.74" y="75.15" width="4.18" height="5.65" transform="translate(-25.01 93.08) rotate(-90)"/><rect class="cls-1" x="90.19" y="75.67" width="4.18" height="5.65" transform="translate(-3.08 116.04) rotate(-90)"/><rect class="cls-1" x="86.88" y="67.31" width="4.18" height="5.65" transform="translate(63.13 -97.52) rotate(47.21)"/><rect class="cls-1" x="71.47" y="66.91" width="4.18" height="5.65" transform="translate(157.84 8.41) rotate(132.79)"/><rect class="cls-1" x="62.49" y="32.36" width="4.18" height="5.65"/><rect class="cls-1" x="87.5" y="83.45" width="4.18" height="5.65" transform="translate(-51.45 38.69) rotate(-47.21)"/><rect class="cls-1" x="70.84" y="84.1" width="4.18" height="5.65" transform="translate(41.82 144.77) rotate(-132.79)"/><path class="cls-2" d="M408.32,351.4s-12.95.14-19.55,9.66-6.37,24.81-.41,34.95,19.06-2.81,19.06-2.81l.9-41.8" transform="translate(-16.87 -54.72)"/><path class="cls-3" d="M408.32,351.4s-14.48,6.68-15.68,23.78,7.25,23.32,7.25,23.32,6.73,2.62,7.33-.45-6.5-17.42,1.1-46.65" transform="translate(-16.87 -54.72)"/><path class="cls-2" d="M411.2,351.4s12.95.14,19.55,9.66,6.37,24.81.41,34.95-19.06-2.81-19.06-2.81l-.9-41.8" transform="translate(-16.87 -54.72)"/><path class="cls-3" d="M411.2,351.4s14.48,6.68,15.68,23.78-7.24,23.32-7.24,23.32-6.74,2.62-7.34-.45,6.5-17.42-1.1-46.65" transform="translate(-16.87 -54.72)"/><path class="cls-2" d="M405.64,398.35s-7.67-16.23-2.82-32.65,5.83-14.58,7.62-14.62c2.62-.06,7.82,16.4,6.95,31.65s-4.66,16.41-4.66,16.41Z" transform="translate(-16.87 -54.72)"/><path class="cls-4" d="M405.74,359.55l2.7,4.2c.32.46.48.64.85.64s.54-.09.94-.53l2.74-4.31-3,3.5-.32-7.9-.76,7.71Z" transform="translate(-16.87 -54.72)"/><path class="cls-4" d="M405.74,372.8l2.7,4.21c.32.45.48.63.85.63s.54-.09.94-.53L413,372.8l-3,3.51-.32-7.91-.76,7.71Z" transform="translate(-16.87 -54.72)"/><path class="cls-4" d="M406.34,387l2.7,4.21c.32.45.48.64.85.64s.54-.09.94-.54l2.74-4.31-3,3.51-.32-7.9-.76,7.7Z" transform="translate(-16.87 -54.72)"/><path class="cls-4" d="M417.61,350.1l1.8,4.65c.22.51.34.72.69.8s.55,0,1-.34l3.55-3.68L421,354.37l1.29-7.81L420,354Z" transform="translate(-16.87 -54.72)"/><path class="cls-4" d="M427.46,358.17l1.79,4.65c.23.51.34.72.7.79s.55,0,1-.33l3.56-3.69-3.65,2.85,1.29-7.81-2.3,7.4Z" transform="translate(-16.87 -54.72)"/><path class="cls-4" d="M418.93,360.42l1.8,4.65c.22.51.34.72.7.79s.55,0,1-.33l3.56-3.69-3.65,2.85,1.29-7.81-2.31,7.4Z" transform="translate(-16.87 -54.72)"/><path class="cls-4" d="M431.6,371.43l1.79,4.66c.23.51.34.72.7.79s.55,0,1-.33l3.56-3.69L435,375.7l1.29-7.8L434,375.3Z" transform="translate(-16.87 -54.72)"/><path class="cls-4" d="M423.63,378.19l1,4.88c.14.54.22.77.56.89s.54.11,1.07-.16l4.13-3.05L426.3,383l2.58-7.49-3.51,6.92Z" transform="translate(-16.87 -54.72)"/><path class="cls-4" d="M429.87,387.21l1.8,4.65c.22.52.34.72.7.8s.55,0,1-.34l3.56-3.68-3.65,2.84,1.29-7.81-2.31,7.4Z" transform="translate(-16.87 -54.72)"/><path class="cls-4" d="M399,351.37l-1.44,4.77c-.18.53-.28.74-.64.84s-.54.06-1-.26l-3.83-3.4,3.86,2.56-1.89-7.69,2.87,7.21Z" transform="translate(-16.87 -54.72)"/><path class="cls-4" d="M389.83,360.14l-1.43,4.78c-.19.52-.29.74-.64.84s-.55.06-1.05-.26l-3.83-3.41,3.85,2.56L384.85,357l2.87,7.2Z" transform="translate(-16.87 -54.72)"/><path class="cls-4" d="M399,364.56l-1.43,4.77c-.19.53-.29.75-.64.84s-.55.06-1.05-.25L392,366.51l3.86,2.56L394,361.38l2.87,7.21Z" transform="translate(-16.87 -54.72)"/><path class="cls-4" d="M397.45,379.18,396,384c-.18.52-.28.74-.64.84s-.54.06-1.05-.26l-3.83-3.41,3.86,2.56L392.46,376l2.87,7.2Z" transform="translate(-16.87 -54.72)"/><path class="cls-4" d="M386.72,373.68l-1.43,4.77c-.19.53-.29.75-.64.84s-.55.06-1-.25l-3.83-3.41,3.85,2.56-1.88-7.69,2.87,7.21Z" transform="translate(-16.87 -54.72)"/><path class="cls-4" d="M389.4,388.75l-.62,4.94c-.1.55-.16.78-.49.93s-.53.15-1.08-.08l-4.35-2.75,4.23,1.91L384,386.42l4,6.65Z" transform="translate(-16.87 -54.72)"/><path class="cls-5" d="M408,354.43s-5.12-.39-6.78-3.76-2.39-7.59-1.51-7.05,6.83,4.26,7.38,5.38,1.12-8,2.78-10.08,3.07,9.67,2.77,10.17,4.46-5.47,6.13-6.72S418.85,354.82,408,354.43Z" transform="translate(-16.87 -54.72)"/><circle class="cls-3" cx="195.17" cy="32.52" r="32.04"/><circle class="cls-6" cx="195.17" cy="32.52" r="27.42"/><rect class="cls-3" x="194.34" y="5.89" width="1.67" height="6.5"/><rect class="cls-3" x="194.34" y="52.93" width="1.67" height="5.88"/><rect class="cls-3" x="187.93" y="83.88" width="1.67" height="6.38" transform="translate(84.83 221.12) rotate(-90)"/><rect class="cls-3" x="234.8" y="84.21" width="1.67" height="5.73" transform="translate(131.69 267.99) rotate(-90)"/><polygon class="cls-3" points="180.38 18.03 179.44 19.43 174.98 15.4 176.1 14.16 180.38 18.03"/><polygon class="cls-3" points="215.37 49.64 214.25 50.88 210.1 47.13 211.34 46 215.37 49.64"/><polygon class="cls-3" points="208.65 16.88 209.64 18.24 214.01 14.05 212.85 12.84 208.65 16.88"/><polygon class="cls-3" points="174.66 49.48 175.82 50.68 180.23 46.45 179.02 45.3 174.66 49.48"/><rect class="cls-3" x="211.2" y="70.26" width="1.67" height="17.59" transform="translate(407.21 103.39) rotate(180)"/><rect class="cls-3" x="194.34" y="31.52" width="11.26" height="1.67"/><path class="cls-4" d="M421.3,276.86l0-3,6-.05,0,3Zm10-.08,0-3,6,0,0,3Zm10-.09,0-3,6-.05,0,3Zm10.2-.18-.44-3a6.82,6.82,0,0,0,4.18-2.36l2.3,1.92A9.71,9.71,0,0,1,451.5,276.51Zm8.08-7.62-2.93-.61a7.28,7.28,0,0,0,.14-1.39V262.6h3v4.29A9.57,9.57,0,0,1,459.58,268.89Zm.21-10.29h-3v-6h3Zm0-10h-3v-6h3Zm0-10h-3v-6h3Zm0-10h-3v-6h3Zm0-10h-3v-6h3Zm0-10h-3v-6h3Zm0-10h-3v-6h3Zm0-10h-3v-6h3Zm0-10h-3v-6h3Zm0-10h-3v-6h3ZM456.6,159a5.68,5.68,0,0,0-2.88-3.6l1.38-2.66a8.68,8.68,0,0,1,4.4,5.49Zm-6.06-4.24h-6v-3h6Zm-10,0h-6v-3h6Z" transform="translate(-16.87 -54.72)"/><rect class="cls-7" y="360.86" width="466.09" height="3.82"/><polygon class="cls-4" points="410.88 385.46 374.55 385.46 369.98 340.08 415.55 340.08 410.88 385.46"/><path class="cls-6" d="M171.1,121.12c0-13-16.91-23.52-37.77-23.52s-37.76,10.53-37.76,23.52,16.91,23.52,37.76,23.52a59.13,59.13,0,0,0,10.48-.93h0l12.69,7.75-.74-11.41h0C165,135.78,171.1,128.89,171.1,121.12Z" transform="translate(-16.87 -54.72)"/><rect class="cls-8" x="114.67" y="108.16" width="37.32" height="25.91" rx="2.15" transform="translate(249.8 187.51) rotate(-180)"/><path class="cls-9" d="M133.87,120.74,151,109.55c.76-.53-1-1.39-2-1.39H117.7c-.93,0-2.71.8-2,1.33l17.05,11.25A.92.92,0,0,0,133.87,120.74Z" transform="translate(-16.87 -54.72)"/><polygon class="cls-4" points="88.46 378.84 52.13 378.84 47.56 326.77 93.13 326.77 88.46 378.84"/><path class="cls-4" d="M75.87,419.55H64a7.54,7.54,0,0,1-7.48-6.64l-1.22-10.13a7.16,7.16,0,0,1,7.12-8h8.37v3H62.39a4.17,4.17,0,0,0-4.14,4.67l1.22,10.13a4.54,4.54,0,0,0,4.5,4h11.9Z" transform="translate(-16.87 -54.72)"/><rect class="cls-6" x="321.22" y="87.15" width="88.68" height="57.94"/><rect class="cls-3" x="321.22" y="72.5" width="88.68" height="14.65"/><rect class="cls-1" x="334.68" y="65.18" width="4.3" height="14.65"/><rect class="cls-1" x="353.3" y="65.18" width="4.3" height="14.65"/><rect class="cls-1" x="371.93" y="65.18" width="4.3" height="14.65"/><rect class="cls-1" x="390.55" y="65.18" width="4.3" height="14.65"/><rect class="cls-10" x="329.9" y="97.58" width="14.88" height="14.88"/><rect class="cls-10" x="348.53" y="97.58" width="14.88" height="14.88"/><rect class="cls-3" x="367.15" y="97.58" width="14.88" height="14.88"/><rect class="cls-10" x="385.78" y="97.58" width="14.88" height="14.88"/><rect class="cls-10" x="329.9" y="116.2" width="14.88" height="14.88"/><rect class="cls-10" x="348.53" y="116.2" width="14.88" height="14.88"/><rect class="cls-10" x="367.15" y="116.2" width="14.88" height="14.88"/><rect class="cls-10" x="385.78" y="116.2" width="14.88" height="14.88"/><polyline class="cls-11" points="247.03 29.79 275.03 12.16 303.03 29.79"/><polyline class="cls-11" points="247.03 29.79 275.03 47.41 303.03 29.79"/><rect class="cls-10" x="252.7" width="44.67" height="57.67"/><rect class="cls-8" x="256.33" y="4" width="16.17" height="8.83"/><rect class="cls-8" x="256.33" y="17.46" width="37" height="2.1"/><rect class="cls-8" x="256.53" y="24.1" width="37" height="2.1"/><rect class="cls-8" x="256.73" y="30.74" width="37" height="2.1"/><polygon class="cls-12" points="275.03 47.41 247.03 29.79 247.03 65.04 303.03 65.04 303.03 29.79 275.03 47.41"/><polyline class="cls-8" points="247.03 65.04 275.03 47.41 303.03 65.04"/><path class="cls-3" d="M165.24,200.6a26.25,26.25,0,1,0,26.24,26.24A26.24,26.24,0,0,0,165.24,200.6Zm0,40.31a14.07,14.07,0,1,1,14.06-14.07A14.07,14.07,0,0,1,165.24,240.91Z" transform="translate(-16.87 -54.72)"/><path class="cls-8" d="M151.24,225.42a14.08,14.08,0,0,1,8.44-11.5h0l-3.39-11.76A26.25,26.25,0,0,0,139,226.26Z" transform="translate(-16.87 -54.72)"/><path class="cls-10" d="M186.47,211.43l-9.74,7.31h0a14,14,0,0,1,1.82,12.61L190,235.45a26.23,26.23,0,0,0-3.56-24Z" transform="translate(-16.87 -54.72)"/><circle class="cls-4" cx="324.78" cy="223.89" r="3.55"/><circle class="cls-4" cx="298.39" cy="108.63" r="3.55"/><circle class="cls-4" cx="416.55" cy="174.18" r="3.55"/><circle class="cls-4" cx="437.6" cy="337.63" r="3.55"/><circle class="cls-4" cx="32.4" cy="308.18" r="3.55"/><circle class="cls-4" cx="132.48" cy="227.27" r="3.55"/><circle class="cls-4" cx="405.61" cy="40.86" r="3.55"/><circle class="cls-4" cx="116.48" cy="30.07" r="2.42"/><circle class="cls-4" cx="432.56" cy="64.56" r="2.42"/><circle class="cls-4" cx="430.15" cy="31.91" r="2.42"/><circle class="cls-4" cx="154.23" cy="120.19" r="3.55"/><circle class="cls-4" cx="142.22" cy="23.47" r="3.55"/><circle class="cls-4" cx="28.84" cy="232.85" r="3.55"/><path class="cls-4" d="M59,168H56v-6h3Zm0-10H56v-6h3Zm0-10H56v-6h3Zm0-10H56v-6h3Zm0-10H56v-.19a10,10,0,0,1,2.25-6.32l2.32,1.9A7,7,0,0,0,59,127.76Zm4.17-6.58-1.21-2.75a9.89,9.89,0,0,1,4-.84h2.49v3H65.94A6.94,6.94,0,0,0,63.13,121.37Zm25.3-.59h-6v-3h6Zm-10,0h-6v-3h6Z" transform="translate(-16.87 -54.72)"/><path class="cls-4" d="M400.42,112.7l-3,0,0-6,3,0Zm.08-10-3,0,0-6,3,0Zm.08-10-3,0,.05-6,3,0Zm.08-10-3,0,0-6,3,0Zm.08-10-3,0,0-2.83a9.86,9.86,0,0,0-.36-2.71l2.88-.82a12.55,12.55,0,0,1,.48,3.45Zm-4.87-8.63a9.47,9.47,0,0,0-4.05-3.14L393,58.15a12.6,12.6,0,0,1,5.32,4.12Zm-7.41-3.85h-6v-3h6Zm-10,0h-6v-3h6Zm-10,0h-6v-3h6Zm-10,0h-6v-3h6Zm-10,0h-6v-3h6Zm-10,0h-6v-3h6Zm-10,0h-6v-3h6Z" transform="translate(-16.87 -54.72)"/><path class="cls-13" d="M235.71,257.89a34.94,34.94,0,0,1-3.81-2.25c-.09,6.38-1.26,13.71-5.45,18.14-4.76,5,8.28,12,23,9.83s22.25-4.89,22.25-4.89-8.17-6.36-8.52-22.18l-1.43.86A27.44,27.44,0,0,1,235.71,257.89Z" transform="translate(-16.87 -54.72)"/><path class="cls-14" d="M297.19,209.14c-1.44-5-6.87-2.44-6.87-2.44,1.57-16.94-.95-64.83-47.89-61.44s-39,61.62-39,61.62c-6-3-9.53,3.57-5.27,14.43,3.88,9.9,12.48,8.17,12.48,8.17,5.25,12.06,13.8,21.17,21.28,26.16a34.94,34.94,0,0,0,3.81,2.25,27.44,27.44,0,0,0,26-.49l1.43-.86c15.25-9.6,21.74-27.41,21.74-27.41C295.71,231.91,298.62,214.09,297.19,209.14Z" transform="translate(-16.87 -54.72)"/><path class="cls-15" d="M294.74,209.77c.28.31-1.1-1.68-2.61-.65s-2.16,4.74-1.27,6,2,4,.07,5.22-1.37,1.86-1.37,1.86a5.08,5.08,0,0,1,2.23-1.58c1.4-.48,1.41-3,0-4.88S292.33,207,294.74,209.77Z" transform="translate(-16.87 -54.72)"/><path class="cls-15" d="M199.35,210c-.25.35.91-1.79,2.53-.92s2.65,4.47,1.9,5.8-1.55,4.18.49,5.2,1.56,1.7,1.56,1.7a5,5,0,0,0-2.38-1.33c-1.45-.33-1.72-2.78-.53-4.85S201.45,207.05,199.35,210Z" transform="translate(-16.87 -54.72)"/><path class="cls-15" d="M241.93,225.18s.78,3.32,5,3.32c4.86,0,5.86-3.32,5.86-3.32a7.85,7.85,0,0,1-5.84,2.13A8.5,8.5,0,0,1,241.93,225.18Z" transform="translate(-16.87 -54.72)"/><ellipse class="cls-16" cx="206.98" cy="169.1" rx="4.71" ry="3.7"/><path class="cls-7" d="M220,204.61a4.15,4.15,0,0,1,2.41-2.58,19.7,19.7,0,0,1,4.35-1.1c6.2-.91,7.51,2.34,6.14,3.57s-2.26-.27-6.16.45C223.2,205.59,219,207.46,220,204.61Z" transform="translate(-16.87 -54.72)"/><circle class="cls-7" cx="210.6" cy="158.25" r="4.11"/><ellipse class="cls-16" cx="253.72" cy="169.1" rx="4.71" ry="3.7"/><path class="cls-7" d="M274.45,204.61A4.18,4.18,0,0,0,272,202a19.66,19.66,0,0,0-4.36-1.1c-6.19-.91-7.5,2.34-6.13,3.57s2.26-.27,6.16.45C271.23,205.59,275.41,207.46,274.45,204.61Z" transform="translate(-16.87 -54.72)"/><circle class="cls-7" cx="250.1" cy="158.25" r="4.11"/><path class="cls-7" d="M239.77,239.65c3.75,4.8,11.91,5,15.37-.25.89-1.35-1.27-2.6-2.16-1.27-2.63,4-8.75,3.2-11.44-.25-1-1.27-2.75.52-1.77,1.77Z" transform="translate(-16.87 -54.72)"/><ellipse class="cls-17" cx="209.42" cy="155.49" rx="15.03" ry="14.21"/><ellipse class="cls-17" cx="250.07" cy="155.3" rx="15.03" ry="14.21"/><path class="cls-18" d="M226.22,225.87a15.76,15.76,0,1,1,16.14-15.75A16,16,0,0,1,226.22,225.87Zm0-29.44a13.69,13.69,0,1,0,14.06,13.69A13.9,13.9,0,0,0,226.22,196.43Z" transform="translate(-16.87 -54.72)"/><path class="cls-18" d="M266.93,225.88a15.76,15.76,0,1,1,16.14-15.76A16,16,0,0,1,266.93,225.88Zm0-29.45A13.69,13.69,0,1,0,281,210.12,13.9,13.9,0,0,0,266.93,196.43Z" transform="translate(-16.87 -54.72)"/><rect class="cls-18" x="224.45" y="154.01" width="10.17" height="2.08"/><path class="cls-7" d="M291.18,166.82v-.07c-.51-4.74-1.37-9.09-2.83-11.66-1.94-3.42-5.86-6-10.34-7.86a8.6,8.6,0,0,0-2.71-4.28c-22.52-19.35-55.18,8.14-69.54,2.79a8.17,8.17,0,0,0-11,5.85c-1.62,7.69-1.51,17.13,5.87,23.33l.41.33c-.09.94-.16,1.89-.21,2.86a171.74,171.74,0,0,0,.88,28.17,6.87,6.87,0,0,1,2.65,1.47c.37,2.34,1.81,10.95,3.39,11,1.77.05,3.07-7.85,1.84-15.21.49-6.1,1.65-15.93,4.16-21.17,7.12,2.17,16.1,2.3,29.92.37a41,41,0,0,0,16.36-6.3c10.39-.13,16.75,2.25,19.09,4.87,2.15,2.4,3.15,6.25,3.62,9.2a90.91,90.91,0,0,1,.53,15.77,37.61,37.61,0,0,0-.38,5.59v.06h0c.05,4.45.91,7.91,2.09,7.91,1.83,0,3.79-11.48,3.79-11.48.08-.24.16-.48.22-.72l1.33-.94S294.41,191.14,291.18,166.82Z" transform="translate(-16.87 -54.72)"/><path class="cls-14" d="M361.36,337l2.06,2.82s4.34,2.73,12.71-.89S392,318.59,394,312.46s1.55-8.84,2.81-13.52-4.26-15.67-7.1-22.66-8-6.11-10.17-5.65-10.26,25-11.56,27.22S357.55,320,361.36,337Z" transform="translate(-16.87 -54.72)"/><rect class="cls-7" x="358.46" y="237.31" width="51.98" height="82.59" rx="2.42" transform="translate(51.06 -130) rotate(12.26)"/><rect class="cls-4" x="362.54" y="241.19" width="45.55" height="68.38" rx="1.2" transform="translate(50.39 -130.26) rotate(12.26)"/><ellipse class="cls-4" cx="376.97" cy="313.79" rx="2.52" ry="2.64" transform="translate(-26.58 560.81) rotate(-77.74)"/><rect class="cls-10" x="368.2" y="252.05" width="40.6" height="16.56" transform="translate(47.27 -131.28) rotate(12.26)"/><rect class="cls-10" x="360.25" y="288.64" width="40.6" height="16.56" transform="translate(54.86 -128.76) rotate(12.26)"/><rect class="cls-10" x="365.35" y="271.89" width="40.6" height="2.41" transform="translate(49.92 -130.38) rotate(12.26)"/><rect class="cls-10" x="370.66" y="247.48" width="40.6" height="2.41" transform="translate(44.85 -132.07) rotate(12.26)"/><rect class="cls-10" x="364.59" y="275.38" width="40.6" height="2.41" transform="translate(50.64 -130.14) rotate(12.26)"/><rect class="cls-10" x="363.84" y="278.87" width="40.6" height="2.41" transform="translate(51.37 -129.9) rotate(12.26)"/><rect class="cls-10" x="363.08" y="282.36" width="40.6" height="2.41" transform="translate(52.09 -129.66) rotate(12.26)"/><path class="cls-14" d="M358.27,336.6s-2.59-17-2.76-19.53,1.91-9,2.16-12.12,4.34-3,8.55-10.81c1.6-3,5.61,1.56,3.14,6.19s-4.88,7.77-3,10.41,5.21,5.05,6.34,10.76S367,347.59,358.27,336.6Z" transform="translate(-16.87 -54.72)"/><path class="cls-18" d="M297.79,349s19.23,54.69,23.55,65.47,12.24,9.62,18.6,8c11.86-3,37.4-77.59,39.83-84.33,0,0-17.84-1.82-23.23-6.67,0,0-14,25-15.43,25.82s-8.7-40.81-8.7-40.81S293.42,315.34,297.79,349Z" transform="translate(-16.87 -54.72)"/><path class="cls-19" d="M343.82,353.27S337.16,364.5,331.94,374a48.6,48.6,0,0,0-5.75,18.34s-.1-16.35,13.25-39.09c0,0,.87,3.32,1.49,3.59S343.82,353.27,343.82,353.27Z" transform="translate(-16.87 -54.72)"/><path class="cls-20" d="M357.28,330l-4,6.21s.34,4.18,10.25,7.08S378,345,378,345l2.34-8.25S365.84,336.57,357.28,330Z" transform="translate(-16.87 -54.72)"/><path class="cls-18" d="M335.54,337.93c-1.62-7.33-2.75-44.79-19.87-52.43-19-8.49-46.54-16.2-46.54-16.2-3.31,9.89-14,13.22-18.94,14.25h0s-20.61-.08-23.78-13.37c0,0-30.27,6.25-45.7,14.43-11.09,5.88-45.24,51.22-47.5,58.38-1.68,5.3,5.41,18.3,9.76,26.37-9.62,12.34-16.22,21-16.22,21s8.87,1.47,18.87-7.19c6.74-5.84,28.8-27.92,42.51-41.72,1.6,27.43,4.44,72.46,6,74.14,3.5,3.82,79.35,2.72,99.35,0,0,0,4.74-37.86,7.54-68.25,5.06,15.47,12.52,38.13,13.15,40.62C314.59,389.71,337.56,347.1,335.54,337.93Zm-87-52.57.07-.07.05.06h-.12Z" transform="translate(-16.87 -54.72)"/><path class="cls-20" d="M231.05,264l-5.58,6.41S230,285.5,245.61,285.5c15.95,0,22.05-11.1,23.52-16.2l-5.22-5.77s-4.63,11.3-16.1,11.59C236.18,275.41,231.05,264,231.05,264Z" transform="translate(-16.87 -54.72)"/><path class="cls-19" d="M300.39,353.73s2.53-25.79,7.75-32.91C308.14,320.82,297.45,327.74,300.39,353.73Z" transform="translate(-16.87 -54.72)"/><path class="cls-19" d="M189.2,340.13s-2.45-19.67-7.66-26.79C181.54,313.34,188.78,315.61,189.2,340.13Z" transform="translate(-16.87 -54.72)"/><path class="cls-14" d="M113.8,287.31l-2.36,2.58s-4.6,2.25-12.53-2.25S85.31,265.72,84,259.41s-.59-9-1.34-13.74,5.93-15.13,9.5-21.77,8.61-5.21,10.73-4.52,7.5,25.94,8.55,28.31S119.41,270.82,113.8,287.31Z" transform="translate(-16.87 -54.72)"/><rect class="cls-3" x="69.85" y="163.75" width="18.62" height="1.75" transform="translate(-44.54 -38.26) rotate(-10.11)"/><rect class="cls-3" x="70.31" y="165.2" width="1.79" height="5.5" transform="translate(-45.25 -39.61) rotate(-10.11)"/><rect class="cls-3" x="86.88" y="162.24" width="1.79" height="5.5" transform="translate(-44.47 -36.75) rotate(-10.11)"/><rect class="cls-3" x="51.73" y="169.91" width="74.66" height="100.43" rx="2.58" transform="translate(-54.13 -35.66) rotate(-10.11)"/><rect class="cls-4" x="55.1" y="174.63" width="68" height="91.4" rx="2.12" transform="translate(-54.17 -35.65) rotate(-10.11)"/><rect class="cls-3" x="65.49" y="168.23" width="30.5" height="10.5" transform="translate(-46.07 -37.85) rotate(-10.11)"/><rect class="cls-10" x="60.01" y="191.97" width="11.5" height="25.67" transform="translate(-51.81 -39.99) rotate(-10.11)"/><rect class="cls-10" x="74.32" y="195.47" width="11.5" height="19.67" transform="translate(-51.67 -37.47) rotate(-10.11)"/><rect class="cls-10" x="88.36" y="195.99" width="11.5" height="16.67" transform="translate(-51.28 -35.02) rotate(-10.11)"/><rect class="cls-10" x="102.74" y="200.31" width="11.5" height="9.83" transform="translate(-51.22 -32.48) rotate(-10.11)"/><rect class="cls-10" x="64.97" y="219.82" width="53.5" height="21.87" transform="translate(-55.96 -35.03) rotate(-10.11)"/><rect class="cls-10" x="68.66" y="245.62" width="53.5" height="11.75" transform="translate(-59.54 -34.06) rotate(-10.11)"/><path class="cls-14" d="M116.91,287.26s4.4-16.58,4.85-19.12-.93-9.18-.85-12.28-4-3.46-7.33-11.67c-1.27-3.12-5.74.95-3.79,5.81s4,8.26,1.82,10.67-5.72,4.47-7.46,10S107,297.24,116.91,287.26Z" transform="translate(-16.87 -54.72)"/><path class="cls-18" d="M95.57,285.36s13.14,79.63,19.14,94.13,20.41,17.5,41.07-9.09c23.25-29.91-1.07,0-1.07,0l-15.5-26.91s-18.38-60.59-18.88-60.88S103.08,285.43,95.57,285.36Z" transform="translate(-16.87 -54.72)"/><path class="cls-20" d="M95.3,284.38l1.23,8.26s3.12,1.72,11.64.46c10.22-1.52,14-5.21,14-5.21l-2.5-8.23S107.4,284.78,95.3,284.38Z" transform="translate(-16.87 -54.72)"/><path class="cls-19" d="M137,336.2s5.13,24.41,5,35.41a90.37,90.37,0,0,0,0-20.45,96.16,96.16,0,0,0-3.71-16.87Z" transform="translate(-16.87 -54.72)"/><polygon class="cls-21" points="271.44 383.58 301.76 363.68 228.44 364.77 271.44 383.58"/><polygon class="cls-11" points="271.44 383.58 138.06 383.58 127.36 300.21 259.86 300.21 271.44 383.58"/><polygon class="cls-11" points="270 374.95 136.96 374.95 138.06 383.58 271.44 383.58 270 374.95"/><ellipse class="cls-10" cx="193.94" cy="337.4" rx="11.53" ry="8.67"/><polygon class="cls-21" points="259.86 300.21 255.53 300.21 268.09 383.58 271.44 383.58 259.86 300.21"/></svg>