<?xml version="1.0" encoding="utf-8"?>
<!-- Generator: Adobe Illustrator 25.0.0, SVG Export Plug-In . SVG Version: 6.00 Build 0)  -->
<svg version="1.1" id="Layer_1" xmlns="http://www.w3.org/2000/svg" xmlns:xlink="http://www.w3.org/1999/xlink" x="0px" y="0px"
	 viewBox="0 0 464.6 121.2" style="enable-background:new 0 0 464.6 121.2;" xml:space="preserve">
<style type="text/css">
	.st0{fill:#475BA6;}
	.st1{fill:#7485C2;}
	.st2{fill:#E83D31;}
	.st3{fill:#FFFFFF;}
</style>
<path class="st0" d="M120,76.4l-12.6-9.6c0.6-4.2,0.6-8.4,0-12.6l12.6-9.6c1.2-0.9,1.5-2.6,0.8-3.9l-12.5-21
	c-0.8-1.3-2.4-1.9-3.8-1.4l-14.1,5.5c-3.7-3-7.8-5.4-12.2-7.2l-2.1-14C75.8,1.1,74.5,0,72.9,0H48c-1.5,0-2.8,1.1-3,2.6l-2,14.2
	c-4.4,1.8-8.5,4.2-12.2,7.2l-14.1-5.5c-1.4-0.5-3.1,0-3.8,1.4L0.4,41c-0.8,1.3-0.5,3,0.8,3.9l12.6,9.5c-0.3,2.1-0.4,4.2-0.4,6.3
	s0.1,4.3,0.4,6.4L1.2,76.6c-1.2,0.9-1.5,2.6-0.8,3.9l12.5,21c0.8,1.3,2.4,1.9,3.8,1.4l14.1-5.5c3.7,3,7.8,5.4,12.2,7.2l2.1,14.2
	c0.3,1.5,1.6,2.6,3.1,2.6h24.9c1.5,0,2.8-1.1,3-2.6l2-14.2c4.4-1.8,8.6-4.2,12.2-7.3l14.1,5.5c1.4,0.6,3.1,0,3.8-1.4l12.4-21
	C121.6,78.9,121.2,77.2,120,76.4z"/>
<ellipse id="ellipse862" class="st1" cx="60.6" cy="60.6" rx="25.3" ry="25.3"/>
<path class="st2" d="M23.4,60.6L23.4,60.6c0.7,0,1.3-0.5,1.3-1.2C25.4,39.5,42,24,61.8,24.7c7.6,0.3,15,3,21,7.7H76
	c-0.7-0.1-1.3,0.5-1.4,1.2s0.5,1.3,1.2,1.4c0.1,0,0.2,0,0.2,0h10.3c0.1,0,0.2,0,0.3-0.1h0.2l0.1-0.1c0.1-0.1,0.2-0.1,0.3-0.2l0,0
	l0.1-0.1c0.1-0.1,0.1-0.2,0.2-0.3c0-0.1,0.1-0.2,0.1-0.3s0-0.1,0-0.2V23.4c0.1-0.7-0.5-1.3-1.2-1.4s-1.3,0.5-1.4,1.2
	c0,0.1,0,0.2,0,0.2v7.4c-16.4-13.5-40.7-11.1-54.2,5.4c-5.4,6.5-8.4,14.6-8.7,23.1C22,60,22.6,60.6,23.4,60.6
	C23.3,60.6,23.3,60.6,23.4,60.6z"/>
<path class="st2" d="M33.8,84.5c-0.4-0.6-1.2-0.7-1.8-0.3c-0.6,0.4-0.7,1.2-0.3,1.8c0,0.1,0.1,0.1,0.1,0.2l0,0
	c0.9,1,1.8,1.9,2.8,2.8c0.6,0.5,1.4,0.4,1.8-0.2c0.4-0.5,0.4-1.3-0.1-1.7C35.4,86.3,34.6,85.4,33.8,84.5L33.8,84.5z"/>
<path class="st2" d="M49.1,94.6c-1.2-0.4-2.3-0.9-3.4-1.4c-0.6-0.3-1.4-0.1-1.7,0.6c-0.3,0.6-0.1,1.4,0.6,1.7h0.1
	c1.2,0.6,2.4,1,3.7,1.5c0.7,0.2,1.4-0.1,1.6-0.8S49.7,94.8,49.1,94.6L49.1,94.6z"/>
<path class="st2" d="M42.3,91.5c-1.1-0.6-2.1-1.3-3.1-2c-0.5-0.5-1.3-0.4-1.8,0.1s-0.4,1.3,0.1,1.8l0.1,0.1h0.1
	c1.1,0.8,2.2,1.5,3.3,2.2c0.6,0.4,1.4,0.2,1.8-0.5C43.1,92.7,42.9,91.9,42.3,91.5L42.3,91.5L42.3,91.5z"/>
<path class="st2" d="M31.4,81.6c-0.7-1-1.4-2-2-3.1c-0.3-0.6-1.1-0.9-1.7-0.6s-0.9,1.1-0.6,1.7c0,0,0,0.1,0.1,0.1
	c0.7,1.1,1.4,2.3,2.2,3.3c0.4,0.6,1.2,0.7,1.8,0.3C31.7,82.9,31.8,82.2,31.4,81.6L31.4,81.6z"/>
<path class="st2" d="M27.7,75.1c-0.5-1.1-0.9-2.3-1.3-3.5c-0.2-0.7-0.9-1.1-1.6-0.9s-1.1,0.9-0.9,1.6l0,0v0.1
	c0.4,1.3,0.9,2.5,1.4,3.7c0.2,0.5,0.7,0.8,1.2,0.8c0.7,0,1.3-0.6,1.3-1.3C27.8,75.5,27.8,75.3,27.7,75.1L27.7,75.1z"/>
<path class="st2" d="M24.5,69.6c0.7-0.1,1.1-0.8,1-1.5l0,0c-0.2-1.2-0.5-2.4-0.6-3.7c-0.1-0.7-0.7-1.2-1.4-1.1
	c-0.7,0.1-1.2,0.7-1.1,1.4c0.1,1.3,0.3,2.6,0.6,3.9C23.1,69.3,23.8,69.8,24.5,69.6L24.5,69.6z"/>
<path class="st2" d="M97,68.3c-0.7-0.2-1.4,0.2-1.6,0.9c-0.3,1.2-0.7,2.4-1.1,3.6c-0.2,0.7,0.2,1.4,0.9,1.6c0.6,0.2,1.3-0.1,1.5-0.7
	c0.4-1.2,0.8-2.5,1.2-3.8C98.1,69.2,97.7,68.5,97,68.3L97,68.3z"/>
<path class="st2" d="M56.3,96.3c-1.2-0.1-2.5-0.3-3.7-0.6c-0.7-0.2-1.4,0.3-1.5,1s0.3,1.4,1,1.5l0,0c1.3,0.3,2.6,0.5,3.9,0.7h0.2
	c0.7,0,1.3-0.5,1.4-1.2C57.5,96.9,57,96.3,56.3,96.3L56.3,96.3z"/>
<path class="st2" d="M94.7,75.6c-0.6-0.3-1.4,0-1.7,0.6c-0.5,1.1-1.1,2.2-1.8,3.3c-0.4,0.6-0.2,1.4,0.4,1.8l0,0
	c0.6,0.4,1.4,0.2,1.7-0.4c0.7-1.1,1.3-2.3,1.9-3.5C95.6,76.7,95.3,75.9,94.7,75.6L94.7,75.6L94.7,75.6z"/>
<path class="st2" d="M89.1,82.5c-0.8,1-1.6,1.9-2.4,2.8c-0.5,0.5-0.5,1.3,0,1.8s1.3,0.5,1.8,0l0,0c0.9-1,1.8-2,2.6-3
	c0.5-0.5,0.4-1.3-0.1-1.8S89.7,81.9,89.1,82.5L89.1,82.5L89.1,82.5L89.1,82.5z"/>
<path class="st2" d="M97.8,60.7c-0.7,0-1.3,0.5-1.3,1.2l0,0l0,0c0,1.2-0.2,2.5-0.3,3.7c-0.1,0.7,0.4,1.3,1.1,1.5h0.2
	c0.6,0,1.2-0.5,1.3-1.1c0.2-1.3,0.3-2.6,0.3-4C99.1,61.2,98.5,60.6,97.8,60.7L97.8,60.7z"/>
<path class="st2" d="M83.9,87.9c-1,0.8-2,1.6-3,2.3c-0.6,0.4-0.7,1.2-0.3,1.8c0.4,0.6,1.2,0.7,1.8,0.3l0,0c1.1-0.8,2.1-1.6,3.2-2.4
	c0.5-0.5,0.6-1.3,0.1-1.8S84.4,87.4,83.9,87.9L83.9,87.9L83.9,87.9z"/>
<path class="st2" d="M71,95c-1.2,0.4-2.4,0.6-3.6,0.9c-0.7,0.1-1.2,0.8-1,1.5c0.1,0.6,0.6,1.1,1.3,1.1h0.2c1.3-0.3,2.6-0.6,3.9-1
	c0.7-0.2,1.1-0.9,0.9-1.6C72.4,95.2,71.7,94.8,71,95L71,95z"/>
<path class="st2" d="M63.7,96.4c-1,0.1-2.1,0.1-3.1,0.1H60c-0.7,0-1.3,0.6-1.3,1.3c0,0.7,0.5,1.3,1.2,1.3l0,0h0.6
	c1.1,0,2.2,0,3.3-0.1c0.7,0,1.2-0.6,1.2-1.4C65.1,96.9,64.5,96.3,63.7,96.4L63.7,96.4z"/>
<path class="st2" d="M77.8,92.1c-1.1,0.6-2.2,1.1-3.3,1.6c-0.7,0.3-1,1-0.7,1.7s1,1,1.7,0.7l0,0c1.2-0.5,2.4-1.1,3.6-1.7
	c0.6-0.3,0.8-1.1,0.5-1.7C79.3,92,78.5,91.8,77.8,92.1L77.8,92.1L77.8,92.1z"/>
<path class="st3" d="M169.8,63.1c0,6.1-1.4,11-4.2,14.7c-2.6,3.6-6.8,5.6-11.2,5.5c-3.7,0.1-7.3-1.4-9.7-4.2v18.7h-10.6V42.9h9.8
	l0.4,3.9c2.4-3,6.1-4.7,10-4.6c4.5-0.2,8.8,1.8,11.4,5.4c2.7,3.6,4.1,8.6,4.1,14.9V63.1z M159.2,62.3c0-3.7-0.7-6.5-2-8.5
	c-1.2-2-3.4-3.1-5.7-3c-3.3,0-5.6,1.3-6.9,3.8v16.2c1.3,2.6,3.6,3.9,6.9,3.9C156.7,74.7,159.2,70.6,159.2,62.3z"/>
<path class="st3" d="M194.6,83.2c-5.8,0-10.5-1.8-14.2-5.4s-5.5-8.3-5.5-14.2v-1c-0.1-3.7,0.7-7.3,2.3-10.7c1.4-3,3.7-5.5,6.5-7.2
	c2.9-1.7,6.3-2.6,9.6-2.6c5.4,0,9.7,1.7,12.8,5.1c3.1,3.4,4.7,8.3,4.7,14.5V66h-25.2c0.2,2.4,1.3,4.6,3.1,6.2s4.1,2.4,6.5,2.4
	c3.7,0.2,7.3-1.5,9.6-4.4L210,76c-1.6,2.3-3.9,4.1-6.4,5.2C200.8,82.7,197.7,83.3,194.6,83.2z M193.3,50.7c-1.9-0.1-3.8,0.7-5.1,2.1
	c-1.4,1.7-2.3,3.9-2.5,6.1h14.7v-0.8c0.1-2-0.6-4-1.9-5.5C197.2,51.3,195.3,50.6,193.3,50.7L193.3,50.7z"/>
<path class="st3" d="M239.2,52.8c-1.3-0.2-2.5-0.3-3.8-0.3c-4,0-6.6,1.4-7.9,4.1v25.9h-10.6V42.9h10l0.3,4.7
	c2.1-3.6,5.1-5.5,8.8-5.5c1.1,0,2.2,0.2,3.3,0.5L239.2,52.8z"/>
<path class="st3" d="M242,62.4c0-6.1,1.4-11,4.3-14.7c2.8-3.7,7.1-5.7,11.7-5.6c4.3,0,7.7,1.5,10.1,4.5l0.4-3.7h9.6v38.3
	c0.1,3.2-0.7,6.3-2.4,9c-1.6,2.6-3.9,4.6-6.6,5.9c-3.1,1.4-6.6,2.1-10,2c-2.9,0-5.8-0.6-8.5-1.7c-2.4-0.9-4.6-2.5-6.3-4.5l4.7-6.4
	c2.4,2.8,5.9,4.5,9.6,4.4c2.4,0.1,4.8-0.7,6.5-2.2c1.6-1.7,2.5-4,2.3-6.4V79c-2.4,2.8-6,4.3-9.6,4.1c-4.5,0.1-8.8-2-11.5-5.6
	c-2.9-3.7-4.4-8.7-4.4-14.8L242,62.4z M252.6,63.2c0,3.6,0.7,6.4,2.2,8.5c1.3,2,3.6,3.1,5.9,3.1c3.2,0,5.5-1.2,6.9-3.6V54.4
	c-1.4-2.4-3.7-3.6-6.8-3.6c-2.4-0.1-4.7,1.1-6,3.1C253.3,56,252.6,59.1,252.6,63.2z"/>
<path class="st3" d="M310.1,78.5c-2.6,3.2-6.2,4.8-10.8,4.8c-4.2,0-7.5-1.2-9.7-3.7c-2.2-2.4-3.4-6-3.4-10.7v-26h10.6v25.6
	c0,4.1,1.9,6.2,5.6,6.2c3.6,0,6.1-1.2,7.4-3.7V42.9h10.6v39.6h-10L310.1,78.5z"/>
<path class="st3" d="M328.3,32.6c0-1.5,0.5-2.9,1.6-3.9c2.5-2.1,6.1-2.1,8.7,0c2.2,2.2,2.2,5.7,0,7.9c-2.5,2-6.1,2-8.6,0
	C328.8,35.5,328.2,34.1,328.3,32.6z M339.6,82.5h-10.7V42.9h10.7V82.5z"/>
<path class="st3" d="M346.6,62.4c0-6.2,1.4-11.1,4.2-14.8c2.6-3.6,6.9-5.7,11.4-5.5c3.7-0.1,7.2,1.5,9.5,4.3V26.3h10.6v56.2h-9.6
	l-0.5-4.2c-2.4,3.2-6.2,5-10.2,4.9c-4.4,0.1-8.6-1.9-11.2-5.5C348,74.1,346.6,69,346.6,62.4z M357.1,63.2c0,3.7,0.6,6.6,1.9,8.5
	c1.2,1.9,3.4,3.1,5.6,3c3,0.2,5.7-1.4,6.9-4.1V54.9c-1.2-2.7-3.9-4.3-6.8-4.1C359.7,50.8,357.2,54.9,357.1,63.2L357.1,63.2z"/>
<path class="st3" d="M408.7,83.2c-5.8,0-10.6-1.8-14.2-5.4s-5.5-8.3-5.5-14.2v-1c-0.1-3.7,0.7-7.3,2.3-10.7c1.4-3,3.7-5.5,6.5-7.2
	c2.9-1.7,6.3-2.6,9.6-2.6c5.4,0,9.7,1.7,12.8,5.1c3.1,3.4,4.7,8.3,4.7,14.5V66h-25.2c0.2,2.4,1.3,4.6,3.1,6.2
	c1.8,1.6,4.1,2.4,6.5,2.4c3.7,0.2,7.3-1.5,9.6-4.4l5.2,5.8c-1.6,2.3-3.9,4.1-6.5,5.2C414.9,82.7,411.8,83.3,408.7,83.2z M407.6,50.7
	c-1.9-0.1-3.8,0.7-5.1,2.1c-1.4,1.7-2.3,3.9-2.5,6.1h14.7v-0.8c0.1-2-0.6-3.9-1.9-5.5C411.4,51.3,409.5,50.6,407.6,50.7z"/>
<path class="st3" d="M446.1,54.7l6.7-11.8h11.3l-11.3,19.4l11.7,20.2h-11.3L446.1,70l-7,12.5h-11.4l11.8-20.2l-11.2-19.4h11.3
	L446.1,54.7z"/>
<path class="st3" d="M85,38.3L48.1,75.2L36.2,63.5c-1.4-1.4-3.7-1.4-5.1,0c-1.4,1.4-1.4,3.7,0,5.1l14.4,14.4c0.7,0.7,1.7,1,2.6,1
	c0.9,0,1.8-0.4,2.6-1l39.4-39.4c1.4-1.4,1.4-3.7,0-5.1C88.6,36.9,86.4,36.9,85,38.3z"/>
</svg>
