<?xml version="1.0" encoding="utf-8"?>
<!-- Generator: Adobe Illustrator 25.3.1, SVG Export Plug-In . SVG Version: 6.00 Build 0)  -->
<svg version="1.1" id="Layer_1" xmlns="http://www.w3.org/2000/svg" xmlns:xlink="http://www.w3.org/1999/xlink" x="0px" y="0px"
	 viewBox="0 0 64 64" style="enable-background:new 0 0 64 64;" xml:space="preserve">
<style type="text/css">
	.st0{fill:#EA5351;}
	.st1{fill:#FFFFFF;}
</style>
<g>
	<g>
		
			<image style="overflow:visible;opacity:0.28;" width="868" height="867" xlink:href="527653E6C492ADD.png"  transform="matrix(0.24 0 0 0.24 -72.12 -55.08)">
		</image>
		<g>
			<path class="st0" d="M85-2.6v69.1c0,0.1,0,0.1,0,0.2c-0.1,9.6-7.6,17.4-17,18.2c-0.5,0-1,0.1-1.5,0.1H-2.6c-0.2,0-0.4,0-0.5,0
				c-1.7,0-3.4-0.3-5-0.8c-0.4-0.1-0.8-0.3-1.2-0.4c-0.9-0.4-1.8-0.8-2.6-1.3c-1.6-0.9-3-2.1-4.2-3.4c-0.4-0.5-0.9-1-1.3-1.5
				c-0.2-0.2-0.3-0.5-0.5-0.7c-1.1-1.6-1.9-3.4-2.4-5.3c-0.3-1.1-0.5-2.3-0.6-3.4c0-0.5-0.1-1.1-0.1-1.6V-2.6c0-0.4,0-0.8,0-1.1
				c0.5-8.9,7.3-16.1,16.1-17.2C-4.1-21-3.3-21-2.6-21h69.1c2.1,0,4.2,0.4,6.1,1c0.3,0.1,0.5,0.2,0.8,0.3c0.7,0.3,1.3,0.6,2,0.9
				c1.6,0.9,3,2,4.3,3.2c0.7,0.7,1.3,1.4,1.8,2.2c0.2,0.3,0.4,0.6,0.6,0.9c0.8,1.3,1.5,2.7,2,4.2c0.3,1.1,0.6,2.2,0.7,3.3
				C84.9-4.2,85-3.4,85-2.6z"/>
		</g>
	</g>
	<g>
		
			<image style="overflow:visible;opacity:0.14;" width="380" height="382" xlink:href="527653E6C492ADF.png"  transform="matrix(0.24 0 0 0.24 -6.6 -6.84)">
		</image>
		<g>
			<path class="st1" d="M55.9,34.2C55.9,34.1,55.9,34.1,55.9,34.2c0.2-2,1.3-3.6,3.1-4.4l2.4-1.1c0.7-0.3,1.1-1,0.9-1.8
				c-0.1-0.6-0.2-1.2-0.4-1.8c0-0.1,0-0.2-0.1-0.3c-0.3-1.2-1.8-1.7-2.7-0.8L33.3,48.5c-0.7,0.6-1.5,0.9-2.3,0.9
				c-0.8,0-1.7-0.3-2.3-0.9L15.3,35.7c-1.4-1.4-1.5-3.6-0.2-5l4-4.3c1.3-1.4,3.6-1.5,5.1-0.2l5.7,5.2c0.6,0.6,1.6,0.6,2.2,0
				l20.2-20.1c0.7-0.7,0.6-1.8-0.1-2.4c-0.5-0.4-0.9-0.8-1.4-1.1c-0.6-0.5-1.4-0.5-2,0l-2.1,1.6c-1.5,1.2-3.5,1.4-5.3,0.6
				c0,0,0,0-0.1,0c-1.7-0.7-3-2.4-3.2-4.2L37.9,3c-0.1-0.7-0.7-1.3-1.4-1.4c-1.2-0.2-2.4-0.3-3.6-0.3c-0.7,0-1.4,0.5-1.6,1.2l-0.3,1
				L30.5,5c-0.5,1.8-2,3.2-3.9,3.6c0,0,0,0,0,0c0,0,0,0,0,0c-1.8,0.4-3.8-0.2-5.1-1.6l-1.8-2c-0.5-0.6-1.3-0.7-2-0.3
				c-1.1,0.6-2.1,1.2-3.1,1.9c-0.6,0.4-0.9,1.2-0.6,1.9l1.2,3.3c0.6,1.6,0.1,3.4-1.2,4.4c0,0,0,0,0,0c-1.5,1.3-4.4,1.9-6.3,1.5
				l-1.4-0.3c-0.7-0.2-1.5,0.2-1.8,0.9c-0.5,1.1-1,2.2-1.4,3.3c-0.3,0.7,0,1.5,0.6,1.9L5.9,25c1.6,1.1,2.4,2.9,2.2,4.8
				c0,0,0,0,0,0.1c-0.2,1.9-1.3,3.5-3.1,4.3l-2.4,1.1c-0.7,0.3-1.1,1-0.9,1.8c0.1,0.6,0.2,1.2,0.4,1.8c0.1,0.6,0.3,1.2,0.5,1.8
				c0.2,0.7,0.9,1.2,1.6,1.2l2.7-0.1c1.9,0,3.7,0.9,4.6,2.6c0,0,0,0,0,0.1c1,1.6,1,3.6,0.1,5.3L10.2,52c-0.4,0.6-0.3,1.5,0.3,2
				c1.2,1.1,2.4,2.2,3.7,3.1c0,0,0,0,0,0l3.1-2.4c1.5-1.2,3.5-1.4,5.3-0.6c0,0,0,0,0.1,0c1.7,0.7,3,2.4,3.2,4.2l0.3,2.7
				c0.1,0.7,0.7,1.3,1.4,1.4c1.2,0.2,2.4,0.3,3.6,0.3l0.1,0c0.7,0,1.4-0.5,1.6-1.2l0.8-2.6c0.5-1.8,2-3.2,3.9-3.6c0,0,0,0,0,0
				c0,0,0,0,0,0c1.8-0.4,3.8,0.2,5.1,1.6l1.8,2c0.5,0.6,1.3,0.7,2,0.3c1.1-0.6,2.1-1.2,3.1-1.9c0.6-0.4,0.9-1.2,0.6-1.9L49.1,53
				c-0.6-1.8-0.2-3.8,1-5.2c0,0,0,0,0,0c1.2-1.4,3.2-2.1,5-1.7l2.6,0.5c0.7,0.2,1.5-0.2,1.8-0.9c0.5-1.1,1-2.2,1.4-3.3
				c0.3-0.7,0-1.5-0.6-1.9L58.1,39C56.6,37.9,55.7,36.1,55.9,34.2z"/>
		</g>
	</g>
</g>
</svg>
